<svg width="68" height="49" viewBox="0 0 68 49" fill="none" xmlns="http://www.w3.org/2000/svg">
<g clip-path="url(#clip0)">
<path fill-rule="evenodd" clip-rule="evenodd" d="M12.2763 46.2486C13.407 46.8029 14.5859 47.1363 15.7727 47.2904C14.9522 46.3513 14.1813 45.3039 13.4138 44.0778C11.8032 41.182 11.227 38.8401 11.1033 35.7578C11.1322 29.8767 13.0443 25.4598 15.635 20.6717C18.1035 16.338 20.7964 12.5992 23.7583 8.64598C24.6406 7.28593 25.7038 5.94217 26.6145 4.57153C26.8604 4.20217 27.039 3.77638 27.2482 3.38939C27.363 3.08504 27.3226 3.17624 27.4299 3.5139C27.6032 3.57635 27.3809 3.15034 27 2.4816C19.0592 -0.876101 9.47488 5.6879 5.35243 17.4305C1.13496 29.4544 4.23511 42.3491 12.2763 46.2486ZM16.4264 47.3469C15.5757 46.2854 14.8487 45.1216 14.1737 43.7318C12.9186 40.9417 12.5825 38.7841 12.7661 35.9765C13.4707 30.6048 15.7488 26.7458 18.6605 22.5894C21.6791 18.922 24.4942 15.0359 27.9429 11.7552C29.1323 10.3786 30.3323 8.99616 31.4259 7.53771C31.5141 7.39269 31.8193 6.90249 32.0766 6.44807C36.5992 12.1886 37.7794 22.1367 34.481 31.5407C30.9602 41.557 23.4767 47.7977 16.4264 47.3469Z" fill="#C95E20"/>
</g>
<g clip-path="url(#clip1)">
<path fill-rule="evenodd" clip-rule="evenodd" d="M64.1172 31.7597C63.7315 32.3782 63.2566 32.8945 62.7244 33.3188C62.8443 32.5879 62.9079 31.8144 62.9165 30.948C62.8385 28.9601 62.4216 27.5626 61.5638 25.9069C59.7979 22.8245 57.5508 21.0564 54.8627 19.2896C52.3694 17.7262 49.944 16.5405 47.3237 15.3198C46.4888 14.8603 45.5707 14.4617 44.7188 14.0049C44.489 13.8819 44.2751 13.7098 44.058 13.5669C43.9114 13.4402 43.9583 13.4764 44.0066 13.6849C43.9408 13.7679 43.9221 13.4797 43.9085 13.018C46.7764 8.95592 53.4002 9.63264 58.906 14.6112C64.5418 19.7101 66.8726 27.3838 64.1172 31.7597ZM62.4228 33.5376C62.521 32.7337 62.5285 31.9117 62.4433 30.986C62.2236 29.1565 61.7446 27.9254 60.8189 26.503C58.8757 23.8838 56.6165 22.5148 53.9602 21.1728C51.3974 20.1187 48.8686 18.8909 46.2115 18.1645C45.2221 17.7852 44.2257 17.4059 43.2586 16.9558C43.1725 16.9051 42.8778 16.7358 42.6171 16.5714C42.124 20.8968 44.5123 26.4664 48.9201 30.4544C53.6186 34.6998 59.1228 35.8144 62.4228 33.5376Z" fill="#733612"/>
</g>
<defs>
<clipPath id="clip0">
<rect width="34.1551" height="44.8265" fill="white" transform="translate(0 4.55389) rotate(-7.66204)"/>
</clipPath>
<clipPath id="clip1">
<rect width="19.3188" height="27.1184" fill="white" transform="matrix(-0.92372 0.383067 0.380616 0.924733 57.6782 6.29629)"/>
</clipPath>
</defs>
</svg>
